PathFileType	4	(X/Y/Z)	markers.trc
DataRate	CameraRate	NumFrames	NumMarkers	Units	OrigDataRate	OrigDataStartFrame	OrigNumFrames
200	200	6	29	mm	200	24	185
Frame#	Time	RxCheec			LxCheec			C7			maxkif			RxShould			LxShould			RxElbow			LxElbow			RxWrist			LxWrist			Psis			RxAsis			LxAsis			RxThigh			LxThigh			RxLatCon			LxLatCon			RxFH			LxFH			RxShank			LxShank			RxLatMal			LxLatMal			RxHeel			LxHeel			RxToe1			LxToe1			RxMeta5			LxMeta5			
		X1	Y1	Z1	X2	Y2	Z2	X3	Y3	Z3	X4	Y4	Z4	X5	Y5	Z5	X6	Y6	Z6	X7	Y7	Z7	X8	Y8	Z8	X9	Y9	Z9	X10	Y10	Z10	X11	Y11	Z11	X12	Y12	Z12	X13	Y13	Z13	X14	Y14	Z14	X15	Y15	Z15	X16	Y16	Z16	X17	Y17	Z17	X18	Y18	Z18	X19	Y19	Z19	X20	Y20	Z20	X21	Y21	Z21	X22	Y22	Z22	X23	Y23	Z23	X24	Y24	Z24	X25	Y25	Z25	X26	Y26	Z26	X27	Y27	Z27	X28	Y28	Z28	X29	Y29	Z29

24	1.73	237.94430494308472	1610.0760698318481	310.4400038719177	233.7155044078827	1613.6189699172974	146.8205749988556	91.90723299980164	1540.6149625778198	233.35100710391998	1.037244452163577	1326.0897397994995	211.31029725074768	125.23600459098816	1506.640911102295	381.14479184150696	124.78768825531006	1535.1423025131226	74.69626516103745	11.150363832712173	1168.2237386703491	449.6142268180847	80.7809829711914	1206.7687511444092	-66.2737637758255	9.065599180758	910.8412265777588	476.8810570240021	213.5377824306488	973.9240407943726	-90.16550332307816	27.360565960407257	1010.9273195266724	222.51227498054504	223.31885993480682	1008.3494186401367	319.7158873081207	191.88247621059418	979.0323972702026	72.79057055711746	322.99211621284485	701.3629078865051	264.00527358055115	200.65049827098846	624.8282194137573	95.3974723815918	312.96923756599426	510.0189447402954	301.4727830886841	95.12846171855927	445.9435045719147	70.48660516738892	300.518661737442	448.599636554718	316.0613179206848	36.9974784553051	430.6095838546753	62.788791954517365	333.37846398353577	327.5259733200073	237.9658967256546	-39.417240768671036	310.465931892395	128.61810624599457	281.45119547843933	71.45462185144424	284.68409180641174	-280.07012605667114	244.2019283771515	134.59785282611847	225.5653440952301	55.933985859155655	235.6550395488739	-301.44208669662476	275.2380073070526	197.2755342721939	489.27292227745056	32.18095749616623	236.1455112695694	-232.86208510398865	40.09871184825897	130.88777661323547	397.76256680488586	21.23131975531578	307.8359365463257	-295.05836963653564	111.82033270597458	103.88433933258057
25	1.7349999999999999	246.21962010860443	1611.2778186798096	310.93829870224	242.40855872631073	1615.4779195785522	147.28449285030365	100.53098946809769	1542.150378227234	233.34763944149017	9.51495487242937	1327.5946378707886	211.46589517593384	134.0559720993042	1507.8260898590088	381.1093270778656	133.13166797161102	1536.6562604904175	74.54739511013031	22.01404795050621	1168.7453985214233	449.8644769191742	87.3456597328186	1208.2267999649048	-65.89321792125702	21.034063771367073	911.3855957984924	477.29015350341797	217.7511602640152	974.0740060806274	-89.69800919294357	35.86283326148987	1012.4118328094482	222.81739115715027	232.04444348812103	1009.679913520813	319.8115825653076	199.9635547399521	980.4452657699585	72.6964920759201	329.50398325920105	700.4954814910889	264.7457420825958	213.9282077550888	627.0002722740173	94.56977248191833	317.4249827861786	509.89657640457153	301.14972591400146	111.42770946025848	447.0509886741638	69.15326416492462	304.3826222419739	448.6444890499115	315.6256675720215	53.51411923766136	431.81851506233215	61.75311282277107	335.66951751708984	327.5664150714874	237.23426461219788	-23.099632933735847	312.3158812522888	127.95490026473999	281.44240379333496	71.55923545360565	284.598171710968	-264.0162706375122	247.41023778915405	134.84403491020203	225.50448775291443	55.9501089155674	235.19401252269745	-285.3892743587494	276.95178985595703	198.52280616760254	489.39359188079834	31.548909842967987	235.84939539432526	-216.3047194480896	43.30965504050255	125.8344054222107	397.7632522583008	21.149680018424988	307.7353537082672	-278.5663604736328	116.04811996221542	100.9209081530571
26	1.74	254.4633448123932	1612.5261783599854	311.3505244255066	251.07982754707336	1617.3834800720215	147.68031239509583	109.09869521856308	1543.752908706665	233.30214619636536	17.957281321287155	1329.161286354065	211.66661381721497	142.81608164310455	1509.1558694839478	381.0502588748932	141.3850635290146	1538.2354259490967	74.3885338306427	32.86556527018547	1169.4226264953613	450.0952363014221	93.81362795829773	1209.7439765930176	-65.48859924077988	33.15092995762825	912.1034145355225	477.64864563941956	221.77328169345856	974.2242097854614	-89.19057995080948	44.35218125581741	1014.0436887741089	223.14584255218506	240.70020020008087	1011.0210180282593	319.8116719722748	207.9746127128601	982.0836782455444	72.54170626401901	335.43047308921814	699.4876265525818	265.5165195465088	227.1517515182495	629.421591758728	93.7458872795105	321.43789529800415	509.6726417541504	300.99302530288696	127.76756286621094	448.46823811531067	67.82924383878708	307.82556533813477	448.55406880378723	315.3139352798462	70.00456750392914	433.2750737667084	60.76348200440407	337.7397060394287	327.60006189346313	236.59615218639374	-6.497671362012625	314.11975622177124	127.13369727134705	281.4011871814728	71.66216522455215	284.47771072387695	-247.4820464849472	249.94313716888428	135.0463628768921	225.47973692417145	55.999767035245895	234.8131239414215	-268.9402401447296	277.95344591140747	199.70861077308655	489.5015358924866	31.039820984005928	235.75161397457123	-198.78023862838745	46.16933688521385	120.705246925354	397.7395296096802	21.091679111123085	307.7205419540405	-261.0987722873688	119.81852352619171	97.73840010166168
27	1.745	262.6757621765137	1613.8263940811157	311.6781413555145	259.7206234931946	1619.3264722824097	148.01083505153656	117.59254336357117	1545.4009771347046	233.2303673028946	26.36992186307907	1330.7816982269287	211.9111269712448	151.54078602790833	1510.611891746521	380.98007440567017	149.54301714897156	1539.8708581924438	74.22621548175812	43.69350150227547	1170.250415802002	450.3103792667389	100.19013285636902	1211.317777633667	-65.05890190601349	45.39985582232475	912.9940271377563	477.95921564102173	225.62041878700256	974.3835926055908	-88.64245563745499	52.822042256593704	1015.7939195632935	223.49350154399872	249.29307401180267	1012.3783349990845	319.7243809700012	215.9290462732315	983.929693698883	72.33132421970367	340.9125506877899	698.4772682189941	266.1789655685425	240.29172956943512	632.0598721504211	92.8930789232254	325.0619173049927	509.3685984611511	300.97419023513794	144.11692321300507	450.16515254974365	66.51420146226883	310.8839690685272	448.3431279659271	315.1251971721649	86.46292239427567	434.92138385772705	59.792857617139816	339.6632969379425	327.5517225265503	236.1159324645996	10.381869040429592	315.8385753631592	126.16434693336487	281.33347630500793	71.76259905099869	284.32464599609375	-230.4806411266327	251.78509950637817	135.15061140060425	225.47848522663116	56.074269115924835	234.59424078464508	-252.09563970565796	278.31873297691345	200.69922506809235	489.6106719970703	30.673043802380562	235.78868806362152	-180.4625540971756	48.60918968915939	115.5235692858696	397.7086842060089	21.070847287774086	307.7569901943207	-242.80373752117157	123.11332672834396	94.40945833921432
28	1.75	270.8621323108673	1615.1819229125977	311.92559003829956	268.32324266433716	1621.2995052337646	148.2781022787094	126.00943446159363	1547.0794439315796	233.14392566680908	34.7590297460556	1332.444667816162	212.19559013843536	160.2523922920227	1512.1783018112183	380.9070587158203	157.60944783687592	1541.551947593689	74.0598514676094	54.48887497186661	1171.2186336517334	450.51512122154236	106.48163408041	1212.942123413086	-64.60370123386383	57.76102840900421	914.051353931427	478.2281219959259	229.31234538555145	974.5650291442871	-88.05462718009949	61.26696616411209	1017.6249742507935	223.85260462760925	257.83637166023254	1013.752818107605	319.56616044044495	223.84941577911377	985.9524965286255	72.07439839839935	346.10703587532043	697.5794434547424	266.61422848701477	253.34253907203674	634.8790526390076	91.98601543903351	328.3523917198181	509.01639461517334	301.06085538864136	160.44284403324127	452.10883021354675	65.20629674196243	313.59413266181946	448.0414092540741	315.0535523891449	102.88050025701523	436.70886754989624	58.81810560822487	341.51163697242737	327.35660672187805	235.84921658039093	27.520928531885147	317.4481987953186	125.07213652133942	281.241774559021	71.85789197683334	284.1476500034332	-213.05184066295624	252.9570460319519	135.12329757213593	225.48270225524902	56.159961968660355	234.5687597990036	-234.88566279411316	278.1054675579071	201.4177143573761	489.7213876247406	30.437393113970757	235.8858287334442	-161.44530475139618	50.640929490327835	110.31317710876465	397.682249546051	21.08454518020153	307.80643224716187	-223.84721040725708	125.90920925140381	91.01144969463348
29	1.755	279.0307402610779	1616.5932416915894	312.0979368686676	276.88050270080566	1623.2943534851074	148.4823226928711	134.36003029346466	1548.7792491912842	233.0493927001953	43.13052445650101	1334.1357707977295	212.51384913921356	168.96675527095795	1513.8421058654785	380.8331489562988	165.5949205160141	1543.2677268981934	73.88535887002945	65.24578481912613	1172.3146438598633	450.7156312465668	112.69329488277435	1214.6090269088745	-64.12391364574432	70.21632790565491	915.2639508247375	478.4623086452484	232.86797106266022	974.7828841209412	-87.43084967136383	69.68429684638977	1019.4989442825317	224.21173751354218	266.34466648101807	1015.1394605636597	319.35563683509827	231.7655384540558	988.1117939949036	71.78165763616562	351.15253925323486	696.8653798103333	266.74652099609375	266.32335782051086	637.844443321228	91.00840240716934	331.3615322113037	508.648157119751	301.22318863868713	176.71506106853485	454.2664587497711	63.903942704200745	315.9889280796051	447.68649339675903	315.0906264781952	119.2455142736435	438.60331177711487	57.82497301697731	343.3425724506378	326.9760310649872	235.8349859714508	44.888999313116074	318.9377188682556	123.89110773801804	281.1296582221985	71.94439321756363	283.9590609073639	-195.25621831417084	253.5051703453064	134.95302200317383	225.47759115695953	56.24425783753395	234.70963537693024	-217.36198663711548	277.34583616256714	201.85011625289917	489.82560634613037	30.29971569776535	235.98378896713257	-141.75473153591156	52.32672765851021	105.10953515768051	397.66451716423035	21.118301898241043	307.8423738479614	-204.37975227832794	128.18299233913422	87.61551231145859
